<svg width="56" height="32" viewBox="0 0 56 32" fill="none" xmlns="http://www.w3.org/2000/svg">
<g id="Mailchimp">
<ellipse id="Ellipse 1924" cx="17" cy="16" rx="17" ry="16" fill="#FFE01B"/>
<path id="Vector" d="M16.4162 7.00001C12.8533 6.98814 5.99902 15.1113 8.55974 17.263L9.18858 17.7926C9.01885 18.2452 8.95886 18.7313 9.01346 19.2113C9.08032 19.8763 9.42578 20.5128 9.98457 21.0052C10.5147 21.4722 11.212 21.7683 11.8886 21.7683C13.0078 24.3333 15.5661 25.9071 18.5638 25.9957C21.7796 26.0907 24.4804 24.5898 25.6116 21.8934C25.6856 21.7034 26 20.8516 26 20.0987C26 19.3419 25.5702 19.0284 25.2955 19.0284C25.2876 18.9991 25.2335 18.802 25.1586 18.5645C25.0846 18.327 25.0074 18.1607 25.0074 18.1607C25.3059 17.715 25.3115 17.3176 25.2717 17.092C25.2295 16.8126 25.1125 16.5751 24.8769 16.3289C24.6412 16.0827 24.1589 15.8301 23.4815 15.6417L23.1265 15.5435C23.1249 15.5285 23.1074 14.7099 23.0922 14.3584C23.0811 14.1051 23.0588 13.7077 22.9354 13.3174C22.7874 12.7886 22.5311 12.3255 22.2103 12.0294C23.0954 11.1174 23.6478 10.112 23.6462 9.24989C23.6439 7.59138 21.5958 7.08947 19.0725 8.12891L18.5375 8.35453C18.2111 8.03561 17.8842 7.7171 17.5569 7.39901C17.2417 7.12589 16.854 7.0016 16.4162 7.00001ZM16.4743 7.69113C16.6065 7.69113 16.7306 7.70617 16.8445 7.73704C17.0809 7.80354 17.8633 8.70603 17.8633 8.70603C17.8633 8.70603 16.4098 9.50797 15.0614 10.6266C13.2466 12.0175 11.8735 14.0394 11.052 16.2331C10.4065 16.3582 9.83731 16.7223 9.48946 17.225C9.28171 17.0524 8.89406 16.7184 8.8256 16.5885C8.27 15.5388 9.43136 13.4995 10.2433 12.3476C12.0916 9.7233 14.9062 7.68638 16.4743 7.69113ZM19.09 10.2822C19.1218 10.2806 19.1377 10.3218 19.1123 10.3408C18.9984 10.4279 18.8742 10.5466 18.7835 10.6685C18.78 10.6732 18.7778 10.6787 18.7773 10.6845C18.7767 10.6903 18.7778 10.6961 18.7803 10.7014C18.7829 10.7066 18.7868 10.711 18.7917 10.7142C18.7966 10.7173 18.8023 10.7191 18.8082 10.7192C19.3327 10.7224 20.0714 10.9052 20.553 11.1736C20.5856 11.1918 20.5626 11.2552 20.5259 11.2464C19.7976 11.0802 18.6044 10.9543 17.3658 11.2544C16.2594 11.5235 15.4156 11.9376 14.7995 12.3833C14.7677 12.4054 14.7311 12.3651 14.7558 12.3358C15.469 11.5164 16.347 10.8039 17.1334 10.4041C17.1605 10.3899 17.1891 10.4192 17.1748 10.4453C17.1119 10.5585 16.9917 10.7992 16.9535 10.982C16.9479 11.0097 16.979 11.0319 17.0029 11.0153C17.4924 10.6828 18.3433 10.3281 19.09 10.2822ZM21.4963 12.8195L21.5408 12.8203C21.6701 12.8253 21.7956 12.8653 21.9038 12.9358C22.3289 13.2169 22.3894 13.8985 22.4117 14.3964C22.4236 14.6814 22.4586 15.3694 22.4706 15.5665C22.4976 16.0185 22.617 16.0819 22.8582 16.161C22.9935 16.2062 23.1209 16.2386 23.3064 16.2909C23.8683 16.4476 24.2018 16.6075 24.4128 16.8118C24.5378 16.94 24.5959 17.0754 24.6142 17.2052C24.6802 17.6865 24.2385 18.2819 23.0683 18.821C21.7892 19.4116 20.237 19.5612 19.1648 19.4424L18.7899 19.4005C17.9318 19.2857 17.4423 20.3877 17.9573 21.1429C18.2892 21.6298 19.1926 21.9464 20.0969 21.9464C22.1697 21.9464 23.7625 21.0669 24.3555 20.3061C24.3726 20.2846 24.3885 20.2621 24.4032 20.2388C24.4319 20.1953 24.408 20.1716 24.3714 20.1961C23.8874 20.5254 21.7366 21.834 19.4362 21.4398C19.4362 21.4398 19.1568 21.3947 18.9013 21.2957C18.6983 21.2165 18.2741 21.0234 18.2223 20.5903C20.0794 21.1603 21.2479 20.6212 21.2479 20.6212C21.2587 20.6163 21.2678 20.6082 21.2738 20.598C21.2798 20.5878 21.2824 20.576 21.2813 20.5642C21.2806 20.5572 21.2786 20.5505 21.2752 20.5443C21.2719 20.5381 21.2673 20.5327 21.2619 20.5282C21.2564 20.5238 21.2501 20.5205 21.2433 20.5185C21.2365 20.5166 21.2294 20.5159 21.2224 20.5167C21.2224 20.5167 19.7013 20.7407 18.2629 20.2175C18.4197 19.7108 18.836 19.8945 19.4649 19.9443C20.4433 20.002 21.4245 19.8966 22.3679 19.6324C23.019 19.4472 23.8739 19.0807 24.5386 18.559C24.7622 19.0482 24.841 19.5873 24.841 19.5873C24.841 19.5873 25.0154 19.5556 25.1594 19.6451C25.2971 19.729 25.3974 19.9032 25.329 20.3536C25.1889 21.1952 24.8291 21.8784 24.2249 22.5069C23.8472 22.9131 23.3977 23.2469 22.8988 23.4917C22.6282 23.6342 22.3384 23.7562 22.0336 23.8559C19.7546 24.5961 17.4216 23.7823 16.6693 22.0351C16.6084 21.9015 16.5581 21.7633 16.5189 21.6219C16.1981 20.47 16.4711 19.0886 17.3213 18.2185C17.373 18.1631 17.4263 18.0974 17.4263 18.0159C17.4263 17.947 17.3826 17.8742 17.3451 17.8235C17.0474 17.3936 16.0166 16.6629 16.2236 15.2475C16.3724 14.231 17.2663 13.5145 18.0997 13.5573C18.1706 13.5604 18.2406 13.5652 18.3115 13.5692C18.6721 13.5905 18.9881 13.6364 19.285 13.6483C19.7825 13.6705 20.2298 13.5984 20.76 13.1591C20.9391 13.011 21.0823 12.882 21.3251 12.8416C21.3474 12.8377 21.3984 12.8195 21.4963 12.8195ZM21.5138 14.5453C21.4978 14.5454 21.4818 14.5468 21.466 14.5492C21.1994 14.592 21.1898 14.9197 21.2845 15.3725C21.3387 15.6259 21.4334 15.8436 21.5392 15.9782C21.6785 15.9623 21.8123 15.9607 21.9356 15.9782C22.0065 15.8159 22.0184 15.5372 21.9548 15.2324C21.8656 14.8089 21.747 14.5421 21.5138 14.5453ZM18.6004 15.7692C18.3102 15.768 18.027 15.8583 17.7917 16.0272C17.6643 16.1199 17.5441 16.2489 17.5609 16.3265C17.5672 16.3518 17.5855 16.3708 17.6309 16.3764C17.7352 16.3882 18.1021 16.2046 18.524 16.1784C18.8217 16.1602 19.0685 16.2529 19.2587 16.3368C19.449 16.4191 19.566 16.4737 19.6113 16.4262C19.6408 16.3962 19.632 16.3392 19.5867 16.2647C19.4927 16.1127 19.3001 15.9584 19.0947 15.8713C18.9385 15.8048 18.7704 15.7701 18.6004 15.7692ZM21.8497 16.4104C21.7136 16.408 21.6005 16.5577 21.5973 16.7429C21.5942 16.9297 21.7016 17.0833 21.8385 17.0849C21.9754 17.0873 22.0885 16.9384 22.0917 16.7524C22.0948 16.5656 21.9866 16.4128 21.8497 16.4104ZM19 16.5466C18.9602 16.5466 18.9188 16.5482 18.8766 16.5529C18.6291 16.5925 18.4922 16.6732 18.4046 16.7484C18.3298 16.8134 18.2836 16.8854 18.2836 16.9361C18.2835 16.9439 18.285 16.9517 18.2879 16.959C18.2909 16.9663 18.2953 16.973 18.3008 16.9786C18.3064 16.9842 18.313 16.9886 18.3203 16.9916C18.3276 16.9947 18.3354 16.9962 18.3433 16.9962C18.399 16.9962 18.5248 16.9464 18.5248 16.9464C18.7788 16.8511 19.0533 16.8228 19.3216 16.864C19.4466 16.8783 19.5047 16.8854 19.5325 16.8434C19.5405 16.8308 19.55 16.8046 19.5246 16.7643C19.4744 16.6827 19.2778 16.5513 19 16.5466ZM20.799 16.8632C20.6979 16.8632 20.6119 16.9036 20.5737 16.9804C20.514 17.1023 20.6016 17.2678 20.7695 17.3493C20.9367 17.4316 21.1221 17.3992 21.1834 17.2781C21.2431 17.1553 21.1556 16.9899 20.9876 16.9084C20.9291 16.879 20.8645 16.8641 20.799 16.8632ZM11.5376 16.8822C11.5758 16.8822 11.6156 16.8822 11.6562 16.8846C12.2372 16.9163 13.0937 17.3596 13.2895 18.6183C13.4623 19.7346 13.1877 20.869 12.1361 21.0479C12.0382 21.0637 11.9387 21.0709 11.8384 21.0685C10.8673 21.0424 9.81741 20.1723 9.71314 19.1408C9.59772 18.0008 10.1836 17.1237 11.2208 16.9155C11.3139 16.8965 11.4213 16.8838 11.5376 16.8822ZM11.4818 17.6161C11.3555 17.615 11.2303 17.64 11.1143 17.6896C10.9982 17.7392 10.8938 17.8123 10.8076 17.9043C10.5052 18.2352 10.4582 18.6864 10.5163 18.8463C10.5378 18.9041 10.572 18.9207 10.5959 18.9239C10.6468 18.9302 10.7233 18.893 10.771 18.7656C10.7758 18.752 10.7804 18.7382 10.7845 18.7244C10.8135 18.6219 10.8555 18.5234 10.9095 18.4315C10.949 18.3714 11 18.3197 11.0595 18.2793C11.1191 18.2389 11.1861 18.2105 11.2567 18.1959C11.3274 18.1813 11.4002 18.1806 11.471 18.194C11.5419 18.2074 11.6094 18.2346 11.6697 18.274C11.8814 18.4117 11.9634 18.6698 11.8727 18.9152C11.8265 19.0427 11.7501 19.2865 11.7668 19.486C11.801 19.8905 12.051 20.0536 12.2762 20.0702C12.4943 20.0781 12.6472 19.957 12.6862 19.8676C12.7093 19.8145 12.6902 19.7828 12.6774 19.7686C12.6432 19.7266 12.5875 19.7393 12.5341 19.752C12.4926 19.7631 12.4498 19.769 12.4068 19.7694C12.3611 19.7707 12.3158 19.7606 12.2749 19.7402C12.2341 19.7197 12.199 19.6895 12.1728 19.6522C12.1107 19.5572 12.1147 19.4147 12.1831 19.2532C12.1919 19.2311 12.203 19.2073 12.215 19.1804C12.3248 18.9366 12.5079 18.5273 12.3025 18.1378C12.1473 17.8449 11.8942 17.6612 11.5909 17.6232C11.5545 17.6184 11.5178 17.6157 11.481 17.6153L11.4818 17.6161Z" fill="black"/>
</g>
</svg>
