<svg width="21" height="20" viewBox="0 0 21 20" fill="none" xmlns="http://www.w3.org/2000/svg">
<g id="more-vertical">
<path id="Vector" d="M10.3332 10.8334C10.7934 10.8334 11.1665 10.4603 11.1665 10.0001C11.1665 9.53984 10.7934 9.16675 10.3332 9.16675C9.87297 9.16675 9.49988 9.53984 9.49988 10.0001C9.49988 10.4603 9.87297 10.8334 10.3332 10.8334Z" stroke="#765664" stroke-width="1.5" stroke-linecap="round" stroke-linejoin="round"/>
<path id="Vector_2" d="M10.3332 4.99992C10.7934 4.99992 11.1665 4.62682 11.1665 4.16659C11.1665 3.70635 10.7934 3.33325 10.3332 3.33325C9.87297 3.33325 9.49988 3.70635 9.49988 4.16659C9.49988 4.62682 9.87297 4.99992 10.3332 4.99992Z" stroke="#765664" stroke-width="1.5" stroke-linecap="round" stroke-linejoin="round"/>
<path id="Vector_3" d="M10.3332 16.6667C10.7934 16.6667 11.1665 16.2936 11.1665 15.8333C11.1665 15.3731 10.7934 15 10.3332 15C9.87297 15 9.49988 15.3731 9.49988 15.8333C9.49988 16.2936 9.87297 16.6667 10.3332 16.6667Z" stroke="#765664" stroke-width="1.5" stroke-linecap="round" stroke-linejoin="round"/>
</g>
</svg>
