<svg width="28" height="32" viewBox="0 0 28 32" fill="none" xmlns="http://www.w3.org/2000/svg">
<g id="Group">
<path id="Vector" d="M23.1305 2.49129C21.6464 0.808402 18.9636 0.0869141 15.5316 0.0869141H5.57088C4.86871 0.0869141 4.27204 0.594955 4.1621 1.28381L0.0146729 27.4523C-0.0677792 27.9683 0.333842 28.4357 0.859585 28.4357H7.00891L8.55334 18.6904L8.50546 18.9955C8.6154 18.3067 9.20763 17.7987 9.90892 17.7987H12.8311C18.5717 17.7987 23.0667 15.479 24.3797 8.76859C24.4187 8.57013 24.4524 8.37697 24.4817 8.18822C24.3159 8.1009 24.3159 8.1009 24.4817 8.18822C24.8726 5.70799 24.479 4.01982 23.1305 2.49129Z" fill="#27346A"/>
<path id="Vector_2" d="M10.9063 7.29474C11.0703 7.21712 11.253 7.1739 11.4445 7.1739H19.2535C20.1782 7.1739 21.0408 7.23388 21.829 7.36001C22.0551 7.39617 22.2741 7.43763 22.4869 7.48525C22.6996 7.532 22.9062 7.58492 23.1066 7.64314C23.2068 7.67224 23.3052 7.70223 23.4018 7.73398C23.7892 7.86276 24.1501 8.0127 24.4817 8.18822C24.8726 5.70711 24.479 4.01982 23.1305 2.49129C21.6455 0.808402 18.9636 0.0869141 15.5316 0.0869141H5.56999C4.86871 0.0869141 4.27204 0.594955 4.1621 1.28381L0.0146735 27.4514C-0.0677786 27.9683 0.333843 28.4349 0.858699 28.4349H7.00891L10.213 8.22085C10.2786 7.80631 10.5464 7.46673 10.9063 7.29474Z" fill="#253B80"/>
<path id="Vector_3" d="M24.38 8.76884C23.067 15.4783 18.572 17.7989 12.8314 17.7989H9.90834C9.20705 17.7989 8.61481 18.3069 8.50576 18.9958L6.58454 31.1129C6.51273 31.5645 6.86382 31.9738 7.32307 31.9738H12.5069C13.1204 31.9738 13.6426 31.5292 13.7384 30.9268L13.7889 30.664L14.7659 24.504L14.8289 24.1635C14.9246 23.5611 15.4468 23.1166 16.0603 23.1166H16.8361C21.8577 23.1166 25.7897 21.0871 26.9387 15.2173C27.4183 12.7644 27.1701 10.7163 25.9014 9.27777C25.5166 8.84205 25.0387 8.48219 24.482 8.18848C24.4518 8.37811 24.419 8.57039 24.38 8.76884Z" fill="#129BD7"/>
<path id="Vector_4" d="M23.1079 7.64306C22.9076 7.58485 22.701 7.53193 22.4882 7.48518C22.2754 7.43843 22.0556 7.39698 21.8304 7.36082C21.0413 7.23381 20.1796 7.17383 19.254 7.17383H11.4459C11.2535 7.17383 11.0708 7.21705 10.9077 7.29555C10.5469 7.46754 10.28 7.80623 10.2144 8.22166L8.55471 18.6903L8.50684 18.9955C8.61589 18.3066 9.20812 17.7986 9.90941 17.7986H12.8325C18.5731 17.7986 23.068 15.4789 24.3811 8.76851C24.4201 8.57006 24.4529 8.37778 24.483 8.18815C24.1506 8.01351 23.7906 7.86268 23.4032 7.73479C23.3065 7.70304 23.2081 7.67217 23.1079 7.64306Z" fill="#222B64"/>
</g>
</svg>
