<svg width="60" height="60" viewBox="0 0 60 60" fill="none" xmlns="http://www.w3.org/2000/svg">
<g id="g-calendar" filter="url(#filter0_d_1725_11234)">
<path id="bg" d="M16 17.9556C16 14.4708 16 12.7284 16.6782 11.3974C17.2747 10.2266 18.2266 9.27473 19.3974 8.67818C20.7284 8 22.4708 8 25.9556 8H34.0444C37.5292 8 39.2716 8 40.6026 8.67818C41.7734 9.27473 42.7253 10.2266 43.3218 11.3974C44 12.7284 44 14.4708 44 17.9556V26.0444C44 29.5292 44 31.2716 43.3218 32.6026C42.7253 33.7734 41.7734 34.7253 40.6026 35.3218C39.2716 36 37.5292 36 34.0444 36H25.9556C22.4708 36 20.7284 36 19.3974 35.3218C18.2266 34.7253 17.2747 33.7734 16.6782 32.6026C16 31.2716 16 29.5292 16 26.0444V17.9556Z" fill="white"/>
<g id="g-calendar_2">
<path id="Vector" d="M38.4935 12H35.2422V16.7112H39.9997V13.3285C40.001 13.3285 39.7646 12.1285 38.4935 12Z" fill="#1967D2"/>
<path id="Vector_2" d="M35.2422 31.9781V31.9897V31.9999L39.9997 27.2887H39.957L35.2422 31.9781Z" fill="#1967D2"/>
<path id="Vector_3" d="M39.9993 27.2886V27.2463L39.957 27.2886H39.9993Z" fill="#FBBC05"/>
<path id="Vector_4" d="M39.9997 16.7113H35.2422V27.2464H39.9997V16.7113Z" fill="#FBBC05"/>
<path id="Vector_5" d="M39.957 27.2887H35.2422V31.9781L39.957 27.2887Z" fill="#EA4335"/>
<path id="Vector_6" d="M35.2422 27.2886H39.957L39.9997 27.2463H35.2422V27.2886Z" fill="#EA4335"/>
<path id="Vector_7" d="M35.2305 31.9898H35.242V31.9783L35.2305 31.9898Z" fill="#34A853"/>
<path id="Vector_8" d="M24.6504 27.2463V31.9897H35.231L35.2427 27.2463H24.6504Z" fill="#34A853"/>
<path id="Vector_9" d="M35.242 27.2887V27.2463L35.2305 31.9897L35.242 31.9781V27.2887Z" fill="#34A853"/>
<path id="Vector_10" d="M20 27.2463V30.5443C20.0426 31.6146 21.2 31.9897 21.2 31.9897H24.6503V27.2463H20Z" fill="#188038"/>
<path id="Vector_11" d="M24.6503 16.7114H35.2425V12.0001H21.3344C21.3344 12.0001 20.0853 12.1286 20 13.4558V27.2465H24.6503V16.7114Z" fill="#4285F4"/>
<g id="31">
<path d="M28.1165 25.1139C27.8742 25.1139 27.6405 25.0823 27.4155 25.0192C27.1962 24.956 26.9943 24.8614 26.8096 24.7351C26.625 24.6031 26.4606 24.4396 26.3163 24.2445C26.1778 24.0493 26.0711 23.8227 25.9961 23.5644L27.0606 23.1426C27.1356 23.4296 27.2626 23.6476 27.4414 23.7968C27.6203 23.9403 27.8453 24.012 28.1165 24.012C28.2376 24.012 28.353 23.9948 28.4627 23.9604C28.5723 23.9202 28.6675 23.8657 28.7483 23.7968C28.8291 23.728 28.8925 23.6476 28.9387 23.5558C28.9906 23.4583 29.0166 23.3492 29.0166 23.2287C29.0166 22.9762 28.9214 22.7782 28.731 22.6348C28.5463 22.4913 28.2896 22.4196 27.9607 22.4196H27.4501V21.3952H27.9174C28.0328 21.3952 28.1453 21.3809 28.255 21.3522C28.3646 21.3235 28.4598 21.2804 28.5406 21.2231C28.6271 21.1599 28.6935 21.0825 28.7396 20.9906C28.7915 20.8931 28.8175 20.7812 28.8175 20.6549C28.8175 20.4598 28.7483 20.302 28.6098 20.1815C28.4713 20.0552 28.2838 19.9921 28.0472 19.9921C27.7934 19.9921 27.5972 20.061 27.4587 20.1987C27.326 20.3307 27.2337 20.4799 27.1818 20.6463L26.1432 20.2245C26.1952 20.0811 26.273 19.9347 26.3769 19.7855C26.4808 19.6306 26.6106 19.4929 26.7664 19.3724C26.9279 19.2461 27.1154 19.1457 27.3289 19.0711C27.5424 18.9907 27.7876 18.9506 28.0646 18.9506C28.3473 18.9506 28.604 18.9907 28.8348 19.0711C29.0714 19.1514 29.2733 19.2633 29.4406 19.4068C29.608 19.5445 29.7378 19.7109 29.8301 19.906C29.9224 20.0954 29.9686 20.302 29.9686 20.5258C29.9686 20.698 29.9455 20.8529 29.8993 20.9906C29.859 21.1284 29.8041 21.2518 29.7349 21.3608C29.6657 21.4698 29.5849 21.5645 29.4926 21.6449C29.406 21.7195 29.3166 21.7797 29.2243 21.8256V21.8945C29.5012 22.0035 29.7291 22.1785 29.908 22.4196C30.0926 22.6606 30.1849 22.9647 30.1849 23.332C30.1849 23.5902 30.1359 23.8284 30.0378 24.0465C29.9397 24.2588 29.7984 24.4453 29.6137 24.606C29.4349 24.7667 29.2185 24.89 28.9646 24.9761C28.7108 25.0679 28.4281 25.1139 28.1165 25.1139Z" fill="#4285F4"/>
<path d="M32.2517 24.9761V20.4139L31.2045 20.8529L30.7891 19.8974L32.5287 19.0883H33.3855V24.9761H32.2517Z" fill="#4285F4"/>
</g>
</g>
</g>
<defs>
<filter id="filter0_d_1725_11234" x="-2" y="-2" width="64" height="64" filterUnits="userSpaceOnUse" color-interpolation-filters="sRGB">
<feFlood flood-opacity="0" result="BackgroundImageFix"/>
<feColorMatrix in="SourceAlpha" type="matrix" values="0 0 0 0 0 0 0 0 0 0 0 0 0 0 0 0 0 0 127 0" result="hardAlpha"/>
<feOffset dy="8"/>
<feGaussianBlur stdDeviation="8"/>
<feColorMatrix type="matrix" values="0 0 0 0 0.156863 0 0 0 0 0.0627451 0 0 0 0 0.103529 0 0 0 0.04 0"/>
<feBlend mode="normal" in2="BackgroundImageFix" result="effect1_dropShadow_1725_11234"/>
<feBlend mode="normal" in="SourceGraphic" in2="effect1_dropShadow_1725_11234" result="shape"/>
</filter>
</defs>
</svg>
