<svg width="16" height="16" viewBox="0 0 16 16" fill="none" xmlns="http://www.w3.org/2000/svg">
<g id="Location">
<path id="Vector" d="M13.3327 6.66668C13.3327 10.6667 7.99935 14.6667 7.99935 14.6667C7.99935 14.6667 2.66602 10.6667 2.66602 6.66668C2.66602 5.25219 3.22792 3.89563 4.22811 2.89544C5.22831 1.89525 6.58486 1.33334 7.99935 1.33334C9.41384 1.33334 10.7704 1.89525 11.7706 2.89544C12.7708 3.89563 13.3327 5.25219 13.3327 6.66668Z" stroke="#765664" stroke-width="1.5" stroke-linecap="round" stroke-linejoin="round"/>
<path id="Vector_2" d="M8 8.66666C9.10457 8.66666 10 7.77123 10 6.66666C10 5.56209 9.10457 4.66666 8 4.66666C6.89543 4.66666 6 5.56209 6 6.66666C6 7.77123 6.89543 8.66666 8 8.66666Z" stroke="#765664" stroke-width="1.5" stroke-linecap="round" stroke-linejoin="round"/>
</g>
</svg>
