<svg width="16" height="16" viewBox="0 0 16 16" fill="none" xmlns="http://www.w3.org/2000/svg">
<g id="Payment">
<path id="Vector" d="M13.334 4H2.66732C1.93094 4 1.33398 4.59695 1.33398 5.33333V10.6667C1.33398 11.403 1.93094 12 2.66732 12H13.334C14.0704 12 14.6673 11.403 14.6673 10.6667V5.33333C14.6673 4.59695 14.0704 4 13.334 4Z" stroke="#765664" stroke-width="1.5" stroke-linecap="round" stroke-linejoin="round"/>
<path id="Vector_2" d="M7.99935 9.33332C8.73573 9.33332 9.33268 8.73637 9.33268 7.99999C9.33268 7.26361 8.73573 6.66666 7.99935 6.66666C7.26297 6.66666 6.66602 7.26361 6.66602 7.99999C6.66602 8.73637 7.26297 9.33332 7.99935 9.33332Z" stroke="#765664" stroke-width="1.5" stroke-linecap="round" stroke-linejoin="round"/>
<path id="Vector_3" d="M4 8H4.00667M12 8H12.0067" stroke="#765664" stroke-width="1.5" stroke-linecap="round" stroke-linejoin="round"/>
</g>
</svg>
